<svg xmlns="http://www.w3.org/2000/svg" viewBox="0 0 982.1 224.85"><defs><style>.cls-1{fill:#fff;}.cls-2,.cls-3{fill:#25e1fe;}.cls-3{fill-rule:evenodd;}.cls-4{fill:none;}</style></defs><title>Asset 1</title><g id="Layer_2" data-name="Layer 2"><g id="logo_1" data-name="logo 1"><path class="cls-1" d="M320.24,174.65H259.56L284.87,54.8h26.91L291,152.7h33.77Z"/><path class="cls-2" d="M603.75,174.65l5-23.37h63.91A7.3,7.3,0,0,0,677.3,150q1.5-1.23,2.22-4.6l3.54-16.64a8.54,8.54,0,0,0,.18-2q0-3.18-4.6-3.18H631.36q-7.26,0-10.53-3.1t-3.28-8.77a30.68,30.68,0,0,1,.53-5.13l6.55-31q2.3-10.62,7.79-15.76T649.6,54.8h74.53l-4.78,22.84H655.79a5.59,5.59,0,0,0-4.07,1.24,9.05,9.05,0,0,0-2,4.42l-3.36,15.76c-.12.47-.21.89-.26,1.24a6,6,0,0,0-.09,1.06q0,2.65,3.9,2.66h48q7.43,0,10.71,3.18t3.27,8.85a25.38,25.38,0,0,1-.53,5l-6.9,32.75q-2.3,10.63-7.79,15.76t-17,5.13Z"/><path class="cls-2" d="M726.22,174.65q-6.73,0-9.73-2.56t-3-7.71a32.23,32.23,0,0,1,.88-6.55l4.42-21.25a47.56,47.56,0,0,1,2.48-8.32A14.93,14.93,0,0,1,724.8,123a11.9,11.9,0,0,1,5.13-2.74,28.55,28.55,0,0,1,7.26-.8h45.49l-3.18,15.23H746.93a5.56,5.56,0,0,0-3.54.88c-.71.59-1.24,1.83-1.59,3.72l-1.95,9.38c-.12.59-.21,1.06-.26,1.42a6.42,6.42,0,0,0-.09,1.07c0,1.54,1.12,2.3,3.37,2.3h41.42l9.38-43.9a8.4,8.4,0,0,0,.17-1.94,2.83,2.83,0,0,0-.88-2.22,5.21,5.21,0,0,0-3.36-.79H728.88l4.07-19.47h73.29q7.79,0,11,2.56c2.13,1.71,3.19,4.4,3.19,8.05a37.84,37.84,0,0,1-.89,6.9l-15.22,72.05Z"/><path class="cls-2" d="M815.59,174.65,838.07,68.08q2.48-11.33,7.52-15.93t13.72-4.61h30.8L886,66.85H867.46q-4.43,0-5.31,4.6l-2.83,13.63h22.13l-4.07,19.47H855.25l-14.87,70.1Z"/><path class="cls-2" d="M890,174.65q-7.61,0-10.89-2.56T875.88,164a37.65,37.65,0,0,1,.88-6.9l11.51-54.53q1.94-9,6.46-13.27T909,85.08h60.55q6.73,0,9.65,2.56t2.92,7.7a31.82,31.82,0,0,1-.71,6.55L974,137.12H914.3l3-14.87h36.11l2.65-12a12.18,12.18,0,0,0,.18-2.3,2.19,2.19,0,0,0-.79-1.95,5.68,5.68,0,0,0-2.92-.53H917c-2,0-3.36.32-4.07,1a8,8,0,0,0-1.77,4L902.79,149c-.12.59-.21,1.09-.26,1.51a7.54,7.54,0,0,0-.09,1.15,2.27,2.27,0,0,0,.89,2.12,6.68,6.68,0,0,0,3.18.53h60.37l-4.25,20.36Z"/><path class="cls-3" d="M506.54,123.82a7.68,7.68,0,0,0-7.22,6,4.82,4.82,0,0,0,4.84,6.08,7.75,7.75,0,0,0,7.22-6A4.81,4.81,0,0,0,506.54,123.82Z"/><path class="cls-3" d="M494.43,123.82a7.7,7.7,0,0,0,7.26-6,4.83,4.83,0,0,0-4.84-6,7.74,7.74,0,0,0-7.26,6.07A4.79,4.79,0,0,0,494.43,123.82Z"/><path class="cls-3" d="M482.37,123.82a7.7,7.7,0,0,0-7.22,6A4.84,4.84,0,0,0,480,135.9a7.71,7.71,0,0,0,7.21-6A4.79,4.79,0,0,0,482.37,123.82Z"/><path class="cls-3" d="M491.94,135.9a7.68,7.68,0,0,0-7.12,6.11,4.82,4.82,0,0,0,5,6,7.77,7.77,0,0,0,7.13-6.13A4.81,4.81,0,0,0,491.94,135.9Z"/><path class="cls-1" d="M547.51,87.64q-3.19-2.56-11-2.56h-60.9q-9.55,0-14.07,4.25l-15.74,16.32-11.15,11.56-12.2,12.65-20.27,21-.74.77a7.8,7.8,0,0,1-4.6,1.06H361.81c-2.6,0-3.89-.82-3.89-2.48a6.33,6.33,0,0,1,.09-1.06c.06-.35.15-.77.27-1.24l7.61-36.47q.53-3,1.68-4a6.24,6.24,0,0,1,4-1H406.6c3.18,0,3.66.76,4.78,2.83l6.6,12.22,23.34-24.2-4.34-8h0a7.68,7.68,0,0,0-1.52-1.69q-3.19-2.56-11-2.56h-60.9q-9.56,0-14.07,4.25T343,102.6l-11.51,54.53a37.35,37.35,0,0,0-.88,6.9q0,5.49,3.27,8.06t10.71,2.56h60.9q9.73,0,14.25-4.25l1.13-1.19,14.57-15.32L446.79,142l11.94-12.55,20.9-22a6.26,6.26,0,0,1,4-1h35.05c3.18,0,4.78.95,4.78,2.83a17.24,17.24,0,0,1-.35,2.12l-7.61,36.47a5.93,5.93,0,0,1-1.95,3.72,7.81,7.81,0,0,1-4.61,1.06h-35c-2.6,0-3-.66-3.9-2.48L462.79,137,439.54,161.4l4,7.35.3.56.59,1.09h0a7.73,7.73,0,0,0,1.56,1.7q3.27,2.56,10.71,2.56h60.9q9.74,0,14.25-4.25t6.46-13.28l11.5-54.53a37.56,37.56,0,0,0,.89-6.9C550.7,92,549.64,89.35,547.51,87.64Z"/><path class="cls-3" d="M405.37,124.43H394.88l2.15-10.9H386.19l-.78,3.95-1.38,7H373.5c-.73,3.71-1.43,7.24-2.14,10.84h10.53l-2.15,10.9h10.85l2.15-10.9h10.5Z"/><path class="cls-1" d="M563.43,174.73q-7.45,0-10.74-2.58t-3.28-8.07a37.29,37.29,0,0,1,.88-6.92l20.58-97.26h24.85l-5.33,25h21.65L608,104.46H586.33l-9.76,46a15.52,15.52,0,0,0-.35,2.3c0,1.66,1.31,2.49,3.9,2.49h16.33l-4.08,19.52Z"/><path class="cls-4" d="M63.2,177.39H59.93a28.37,28.37,0,0,0,2.63,1.93C62.82,178.65,63,178,63.2,177.39Z"/><path class="cls-4" d="M166.07,167.47l2.26-2.21c-16.52,1.82-21.95,10.46-21.95,10.46.38-4.74,3.87-8.76,3.87-8.76-19.67,2-13.58,18.57-13.58,18.57a16.81,16.81,0,0,1-7.88-7.86s-4.25,8.15,8.9,22.06a139.61,139.61,0,0,0,36.13-31.32q-3.18-.27-6.34-.69C167.07,167.68,166.66,167.58,166.07,167.47Z"/><path class="cls-1" d="M131.17,62.12c-2.7,3.38-4.55,7-4.51,11.55a26.23,26.23,0,0,1,16.26-10,49.1,49.1,0,0,0-3.32-6.12c-2.18-3-5.12-3.61-8.6-2.3s-5.59,3.89-7.11,7a58.22,58.22,0,0,0-2.37,6.81l.45.19A22.35,22.35,0,0,1,131.17,62.12Z"/><path class="cls-1" d="M177,101.4l-3.41.79a6.1,6.1,0,0,0,1.59,1.43c1.36,1,1.67,4.58,1.75,4.84.4,1.29.84,2.57,1.34,4.09l-7.82-3.17a12.29,12.29,0,0,0,6.15,5.42c4.57,1.88,6.48.08,11.29,1.16a30.53,30.53,0,0,1,4.81,1.82l-4.67-4.9c2.09-.3,4.12-.55,5.38-2.1a12.22,12.22,0,0,1-2.35-1.48,13.22,13.22,0,0,1-1.92-2.64c-1.5-2.54-2.87-5.17-4.4-7.69-4.41-7.32-11.21-10.06-19.48-10A23.3,23.3,0,0,1,177,101.4Zm4.2,4.85a25.32,25.32,0,0,0,5.49,5.49,2.57,2.57,0,0,0-2.16,1.46A7.9,7.9,0,0,1,181.16,106.24Z"/><path class="cls-1" d="M228,140.06a60.84,60.84,0,0,0-12.29-15.56c-.8-.77-1.64-1.5-2.5-2.2,16.29-46.47,13.06-89.62,13-90.41l-.43-5.1-5.09-.57c-.55-.06-55.34-6.35-105.22-25.37L113.24,0,111,.85C61.14,19.87,6.35,26.16,5.8,26.22l-5.09.57-.43,5.1c-.05.59-1.78,24.51,3.9,55.81,4.06,22.38,9.62,36.11,9.62,36.11l0,0c14,39.08,41.93,80.22,97.28,100.3l2.12.77,2.13-.77c34-12.33,57.64-32.62,74.08-55.49.91-.06,1.82-.08,2.73-.16a109,109,0,0,0,12.89-1.9,66.53,66.53,0,0,0,17.82-6.47c4.39-2.37,8-5.34,8.35-9.53C231.5,146.9,229.68,143.26,228,140.06ZM12.49,37.94c14.94-2,58.64-8.89,100.76-24.61C155.36,29.06,199.08,35.92,214,37.94a236.12,236.12,0,0,1-11.27,76.62c-.39-.26-.76-.52-1.16-.79.34-.62.65-1.11.88-1.62a17.56,17.56,0,0,0,1.34-3.55,18,18,0,0,0-1.23-9.76c-2.44-6.25-6.53-11.41-11.12-16.21-.79-.82-1.64-1.59-2.59-2.52l-.9,3.22a7.31,7.31,0,0,1-.89-.68A43.5,43.5,0,0,0,184,79.48c-3.59-3-7.26-5.91-10.88-8.89a2.08,2.08,0,0,1-.69-1.29,23.13,23.13,0,0,0-1.51-8.07c0-.1,0-.26.06-.44l3.42-.24c-.65-1.44-1.14-2.78-1.83-4-2.23-4-5.26-7.08-9.83-8.29a17,17,0,0,0-9.67.61,1.59,1.59,0,0,1-2.24-.84,12.31,12.31,0,0,0-9.21-6c-.72-.09-1.45-.14-2.17-.21l-.17-.37L144,36.71a11,11,0,0,0-1.82-.35c-2.93,0-5.88-.17-8.79.08a25.22,25.22,0,0,0-12.53,4.29,23.52,23.52,0,0,0-3.83,3.83,37.67,37.67,0,0,0-27.32-6.18l3.52,2.42S51.34,35,25.67,66.13l5.59.08s-7.41,2.35-16.36,10A235,235,0,0,1,12.49,37.94ZM165.26,60.83a50.7,50.7,0,0,1,1.49,5l-.39.26c-2.2-1.19-4.38-2.38-6.59-3.54-1.26-.66-2.53-1.32-3.85-1.89a2.33,2.33,0,0,1-1.61-2.1,31.29,31.29,0,0,0-.56-3.23c-.22-1.12.78-1.23,1.39-1.47a10,10,0,0,1,7.51.29,30.94,30.94,0,0,1,3,1.57l-.12.35-2.77.07A50.76,50.76,0,0,1,165.26,60.83Zm-27.56,138.9c-13.15-13.91-8.91-22.05-8.9-22.06a16.81,16.81,0,0,0,7.88,7.86S130.58,169,150.25,167c0,0-3.49,4-3.87,8.76,0,0,5.43-8.64,21.95-10.46l-2.26,2.21c.59.11,1,.21,1.41.26q3.17.42,6.34.69A139.61,139.61,0,0,1,137.69,199.74Zm75.93-58.24c-2.07-2.81-3.8-5.95-6.8-7.81l-.29-.19a10.13,10.13,0,0,0-1.92-.87c1,1.45,1.94,2.92,2.78,4.43a23.63,23.63,0,0,1,3.41,12l-3.24-2.84c1,4.16,2.46,8.12,1.06,12.59l-2.23-3c-.23,1.39-.35,2.67-.65,3.91a3,3,0,0,1-2.54,2.2c-3.08.71-5.93.39-8.19-1.5,0,0-16.54-9.95-26.51-14.22,0,0,18.92,13.75,21,17.24l-11.77,0h-1.24l2.68-2.89h-7.33a49.65,49.65,0,0,1-19.21-3.65c-6.82-2.84-13.57-5.87-20.3-8.92-10.69-4.83-23.31-3.42-30.53,4.73-2.82-3.5-5.25-10.31-6.16-12.46-3.84-9.11-4.51-18.59-3.41-28.29a76.94,76.94,0,0,1,3.93-17.47l-5.84,2.61a26.33,26.33,0,0,1,13.08-12.42S91,84.71,85.89,96c-1.2,2.66-1.61,5.61-2.4,8.42l.5.28,4.2-2.63c-.4,1.39-.72,2.79-1,4.18-1.54,7.78-.91,15.92.69,23.47-2.79-4.64-7.14-12.28-9.13-18,0,0,.45,15,3.84,24.76-1.57-3.75-8-14.78-30.06-14.9,0,0,9.77,3.69,15.33,10.46,0,0-8.76-3.82-17.82-1.91,0,0,17.08,3.07,29.48,29.11,0,0-7.58-9.85-25.63-8.47,0,0,16.95,7.44,8.67,28.53,0,0-23.48-14.32-39.19-63-1.72-6.35-3.12-12.11-4.25-17.16l.17-.23A209,209,0,0,1,39.59,76.31,234.87,234.87,0,0,0,17.11,89.48c-.41-2.1-.74-4-1-5.59A111.67,111.67,0,0,1,49.79,61.72l-9.13-1.3s27.42-22.84,66.57-12.48l-4.51-4.63a27.05,27.05,0,0,1,11.77,5A45.11,45.11,0,0,0,109.67,61c-.33,2.08-.66,4.15-1,6.2l-5.57-2.49-.2.36,12.25,11.56c-.12-1.27-.2-2.22-.3-3.16a34.57,34.57,0,0,1,1.76-15.89c2.13-5.75,5.26-11,11.06-13.81a64.17,64.17,0,0,1,6.75-2.47l.16.37-2.19,4.05c5.37-.73,10.21-.29,14,3.83,3.6,4,4.69,8.68,4.25,13.8C167,70.83,180.9,81.59,193.18,95c.25-1.22.43-2.16.63-3.17,5.19,6.58,8,16,1.5,22.53,2,1.52,4,3,6,4.51,2.76,2.08,5.5,4.18,8.15,6.39a59.81,59.81,0,0,1,12.17,13.39C218.2,138.05,215.57,138.92,213.62,141.5Z"/></g></g></svg>